<svg width="29" height="35" viewBox="0 0 29 35" fill="none" xmlns="http://www.w3.org/2000/svg">
<path d="M15.1838 0H22.8722V0.81987C22.8722 4.03971 25.0562 6.74944 28.0236 7.54856L28.0724 7.55974H28.9522V15.2481H28.1481C26.2438 15.244 24.431 14.8571 22.7811 14.1604L22.8723 14.1946V23.5639C22.8723 29.8799 17.7521 35 11.4361 35C5.12013 35 0 29.8799 0 23.5639C0 17.2479 5.12013 12.1278 11.4361 12.1278H12.2404V19.7969H11.4249C9.35066 19.7969 7.66918 21.4784 7.66918 23.5526C7.66918 25.6269 9.35066 27.3084 11.4249 27.3084C13.4963 27.3084 15.1761 25.6314 15.1806 23.5611V23.5607L15.1838 0ZM21.296 1.6085H16.7923V23.5639C16.7852 26.5167 14.3899 28.9076 11.4361 28.9076C8.47798 28.9076 6.07993 26.5095 6.07993 23.5515C6.07993 20.8772 8.0398 18.6607 10.6017 18.2599L10.6319 18.256V13.7684C5.56139 14.1972 1.6084 18.4185 1.6084 23.5631C1.6084 28.9909 6.00836 33.3908 11.436 33.3908C16.8634 33.3908 21.2633 28.9913 21.2637 23.564V11.6308L22.7499 12.3739C24.0876 13.0494 25.6509 13.4938 27.3048 13.6101L27.3437 13.6124V9.02499C24.0466 8.00015 21.6334 5.12488 21.3034 1.64278L21.3008 1.6084L21.296 1.6085Z" fill="black"/>
</svg>
