<svg width="35" height="35" viewBox="0 0 35 35" fill="none" xmlns="http://www.w3.org/2000/svg">
<path d="M24.7915 2.91666H10.2082C6.18109 2.91666 2.9165 6.18125 2.9165 10.2083V24.7917C2.9165 28.8187 6.18109 32.0833 10.2082 32.0833H24.7915C28.8186 32.0833 32.0832 28.8187 32.0832 24.7917V10.2083C32.0832 6.18125 28.8186 2.91666 24.7915 2.91666Z" stroke="black" stroke-width="2" stroke-linecap="round" stroke-linejoin="round"/>
<path d="M23.3336 16.5813C23.5135 17.795 23.3062 19.0345 22.7411 20.1236C22.176 21.2127 21.2819 22.0958 20.1859 22.6475C19.09 23.1991 17.848 23.3911 16.6366 23.1962C15.4252 23.0012 14.3061 22.4293 13.4385 21.5617C12.5709 20.6941 11.999 19.575 11.8041 18.3637C11.6091 17.1523 11.8012 15.9103 12.3528 14.8143C12.9044 13.7183 13.7876 12.8242 14.8767 12.2591C15.9657 11.694 17.2053 11.4867 18.419 11.6667C19.657 11.8503 20.8031 12.4271 21.6881 13.3121C22.5731 14.1971 23.15 15.3432 23.3336 16.5813Z" stroke="black" stroke-width="2" stroke-linecap="round" stroke-linejoin="round"/>
<path d="M25.521 9.47916H25.5356" stroke="black" stroke-width="2" stroke-linecap="round" stroke-linejoin="round"/>
</svg>
