<svg width="40" height="30" viewBox="0 0 40 30" fill="none" xmlns="http://www.w3.org/2000/svg">
<ellipse cx="13.1998" cy="15" rx="4.40001" ry="4.23077" fill="#B81111"/>
<path d="M20.3999 11.9231L22.0155 13.3212C23.5575 14.6556 24.5902 16.4824 24.9385 18.4915C25.1115 19.4897 25.1115 20.5103 24.9385 21.5085L24.7982 22.3176C24.5395 23.8104 23.811 25.1816 22.7189 26.2317C21.7275 27.185 20.4812 27.8305 19.1306 28.0903L16.6605 28.5653C15.689 28.7521 14.7019 28.8462 13.7126 28.8462H0.399902V21.1538H13.3754C14.5733 21.1538 15.7526 20.8586 16.8092 20.2942L17.0904 20.144C18.204 19.5491 19.1116 18.6313 19.6941 17.5112C20.1578 16.6194 20.3999 15.6291 20.3999 14.6239V11.9231Z" fill="#B81111"/>
<path d="M6.34864 15.3846L2.79603 12.507C2.00952 11.87 1.3811 11.0595 0.959938 10.1392L0.85652 9.91317C0.302303 8.70203 0.177746 7.33809 0.503426 6.04659C0.860405 4.63097 1.73355 3.39987 2.95151 2.59489L4.20836 1.76421C4.92667 1.28947 5.70476 0.912078 6.5223 0.641913L6.72798 0.573943C7.87844 0.19376 9.0823 -1.90735e-06 10.2939 -1.90735e-06H13.2261L29.3038 -1.90735e-06C31.2349 -1.90735e-06 32.8003 1.56544 32.8003 3.4965C32.8003 5.42757 31.2349 6.993 29.3038 6.993L13.2261 6.993L11.9438 6.97585C9.58477 6.94428 7.46635 8.41507 6.67147 10.6363C6.45785 11.2333 6.34864 11.8626 6.34864 12.4966V15.3846Z" fill="#B81111"/>
<path d="M25.2 12.3077H30.8854C32.9014 12.3077 34.8573 12.9946 36.4306 14.2553C37.9665 15.4859 39.0537 17.211 39.513 19.1247C39.8315 20.4515 39.8457 21.8462 39.5489 23.178L39.4961 23.415C39.0477 25.427 37.8764 27.2045 36.2045 28.4102C34.7713 29.4438 33.0491 30 31.2821 30H24L24.6026 29.4206C29.3928 24.8147 29.6573 17.2364 25.2 12.3077Z" fill="#B81111"/>
</svg>
