<svg width="59" height="45" viewBox="0 0 59 45" fill="none" xmlns="http://www.w3.org/2000/svg">
<ellipse cx="19.452" cy="22.5266" rx="6.48422" ry="6.23482" fill="#B81111"/>
<path d="M30.0626 17.9919L32.4435 20.0523C34.7158 22.0188 36.2377 24.7109 36.751 27.6718C37.0059 29.1428 37.0059 30.6467 36.751 32.1178L36.5443 33.3102C36.163 35.5101 35.0895 37.5309 33.48 39.0784C32.0191 40.4832 30.1823 41.4345 28.192 41.8173L24.5519 42.5173C23.1201 42.7926 21.6655 42.9312 20.2075 42.9312H0.588867V31.5952H19.7107C21.4759 31.5952 23.214 31.1601 24.771 30.3283L25.1854 30.107C26.8265 29.2303 28.164 27.8778 29.0224 26.2271C29.7058 24.9129 30.0626 23.4534 30.0626 21.9722V17.9919Z" fill="#B81111"/>
<path d="M9.35554 23.0933L4.12011 18.8526C2.96104 17.9138 2.03494 16.7195 1.41428 15.3631L1.26188 15.0301C0.445137 13.2452 0.261581 11.2352 0.741531 9.33197C1.2676 7.24579 2.55435 5.43154 4.34924 4.24525L6.20143 3.0211C7.25999 2.32147 8.40666 1.76531 9.61145 1.36718L9.91456 1.26701C11.61 0.706739 13.3841 0.421198 15.1697 0.421198H19.4907L43.1842 0.421198C46.0299 0.421198 48.3369 2.72816 48.3369 5.57394C48.3369 8.41972 46.03 10.7267 43.1842 10.7267L19.4907 10.7267L17.601 10.7014C14.1246 10.6549 11.0027 12.8224 9.83128 16.0958C9.51647 16.9755 9.35554 17.9029 9.35554 18.8372V23.0933Z" fill="#B81111"/>
<path d="M37.1366 18.5588H45.515C48.4861 18.5588 51.3684 19.5712 53.687 21.429C55.9503 23.2426 57.5526 25.7847 58.2295 28.6049C58.6987 30.5603 58.7198 32.6155 58.2824 34.5782L58.2045 34.9276C57.5437 37.8926 55.8177 40.512 53.3537 42.2889C51.2416 43.812 48.7037 44.6317 46.0997 44.6317H35.3682L36.2562 43.7778C43.3154 36.9902 43.7053 25.8223 37.1366 18.5588Z" fill="#B81111"/>
</svg>
