<svg width="70" height="70" viewBox="0 0 70 70" fill="none" xmlns="http://www.w3.org/2000/svg">
<g clip-path="url(#clip0_28_45)">
<path d="M34.0726 20.2699L11.6665 41.0307V63.4375C11.6665 64.0177 11.8714 64.5741 12.236 64.9843C12.6007 65.3945 13.0953 65.625 13.611 65.625L27.2294 65.5854C27.7434 65.5825 28.2355 65.3507 28.598 64.9408C28.9606 64.5309 29.1641 63.9761 29.1641 63.3979V50.3125C29.1641 49.7323 29.369 49.1759 29.7336 48.7657C30.0983 48.3555 30.5928 48.125 31.1085 48.125H38.8863C39.402 48.125 39.8966 48.3555 40.2613 48.7657C40.6259 49.1759 40.8308 49.7323 40.8308 50.3125V63.3883C40.83 63.6761 40.8797 63.9613 40.977 64.2275C41.0744 64.4937 41.2175 64.7356 41.3981 64.9395C41.5788 65.1434 41.7934 65.3051 42.0297 65.4155C42.266 65.5258 42.5194 65.5826 42.7752 65.5826L56.3888 65.625C56.9044 65.625 57.399 65.3945 57.7637 64.9843C58.1283 64.5741 58.3332 64.0177 58.3332 63.4375V41.0156L35.932 20.2699C35.6686 20.0311 35.3406 19.9009 35.0023 19.9009C34.664 19.9009 34.336 20.0311 34.0726 20.2699ZM69.4651 34.3807L59.3054 24.9594V6.02246C59.3054 5.58734 59.1518 5.17004 58.8783 4.86236C58.6048 4.55469 58.2339 4.38184 57.8471 4.38184H51.0415C50.6548 4.38184 50.2838 4.55469 50.0103 4.86236C49.7368 5.17004 49.5832 5.58734 49.5832 6.02246V15.9496L38.7028 5.87891C37.6587 4.91228 36.3484 4.38377 34.9962 4.38377C33.644 4.38377 32.3338 4.91228 31.2896 5.87891L0.527299 34.3807C0.379627 34.518 0.257453 34.6867 0.167755 34.8771C0.0780582 35.0676 0.0225964 35.276 0.00453908 35.4906C-0.0135183 35.7052 0.00618275 35.9217 0.0625164 36.1277C0.11885 36.3337 0.210712 36.5252 0.332854 36.6912L3.43181 40.9295C3.55362 41.0961 3.70345 41.2341 3.87271 41.3355C4.04198 41.4369 4.22736 41.4997 4.41824 41.5204C4.60913 41.5411 4.80177 41.5193 4.98513 41.4561C5.1685 41.393 5.33899 41.2897 5.48685 41.1523L34.0726 14.6645C34.336 14.4256 34.664 14.2954 35.0023 14.2954C35.3406 14.2954 35.6686 14.4256 35.932 14.6645L64.519 41.1523C64.6666 41.2898 64.8368 41.3931 65.0199 41.4565C65.203 41.5199 65.3954 41.542 65.5862 41.5217C65.7769 41.5014 65.9622 41.439 66.1315 41.3381C66.3008 41.2372 66.4507 41.0997 66.5728 40.9336L69.6717 36.6953C69.7937 36.5283 69.8852 36.3358 69.9409 36.1289C69.9966 35.922 70.0153 35.7048 69.9961 35.4897C69.9769 35.2746 69.9201 35.0659 69.829 34.8756C69.7379 34.6852 69.6142 34.517 69.4651 34.3807Z" fill="black"/>
</g>
<defs>
<clipPath id="clip0_28_45">
<rect width="70" height="70" fill="white"/>
</clipPath>
</defs>
</svg>
