<svg width="70" height="70" viewBox="0 0 70 70" fill="none" xmlns="http://www.w3.org/2000/svg">
<g clip-path="url(#clip0_28_47)">
<path d="M69.8261 67.0833C69.8261 67.8733 69.6107 68.5569 69.1799 69.1341C68.7491 69.7114 68.2389 70 67.6494 70C67.0599 70 66.5498 69.7114 66.119 69.1341C65.6882 68.5569 65.4728 67.8733 65.4728 67.0833V28.7109L41.462 44.8438C39.6482 46.059 37.4942 46.6667 35.0002 46.6667C32.5061 46.6667 30.3522 46.059 28.5384 44.8438L2.82707 27.6172C1.05857 26.4019 0.174316 24.9588 0.174316 23.2878C0.174316 21.6168 1.05857 20.204 2.82707 19.0495L28.5384 1.82292C30.3522 0.607639 32.5061 0 35.0002 0C37.4942 0 39.6482 0.607639 41.462 1.82292L67.1733 19.0495C68.7151 20.0825 69.5767 21.3585 69.758 22.8776C69.8034 22.9384 69.8261 23.0599 69.8261 23.2422V67.0833ZM43.6386 50.6771L56.7664 41.8359V54.6875C56.7664 57.3004 54.6464 59.5334 50.4066 61.3867C46.1667 63.24 41.0312 64.1667 35.0002 64.1667C28.9691 64.1667 23.8337 63.24 19.5938 61.3867C15.354 59.5334 13.234 57.3004 13.234 54.6875V41.8359L26.3617 50.6771C28.1756 51.8924 31.0551 52.5 35.0002 52.5C38.9453 52.5 41.8248 51.8924 43.6386 50.6771Z" fill="black"/>
</g>
<defs>
<clipPath id="clip0_28_47">
<rect width="70" height="70" fill="white"/>
</clipPath>
</defs>
</svg>
